<svg width="20" height="20" viewBox="0 0 20 20" fill="none" xmlns="http://www.w3.org/2000/svg">
<path d="M10 20.0002C4.477 20.0002 0 15.5232 0 10.0002C0 4.47724 4.477 0.000244141 10 0.000244141C15.523 0.000244141 20 4.47724 20 10.0002C20 15.5232 15.523 20.0002 10 20.0002ZM10 18.0002C12.1217 18.0002 14.1566 17.1574 15.6569 15.6571C17.1571 14.1568 18 12.122 18 10.0002C18 7.87851 17.1571 5.84368 15.6569 4.34339C14.1566 2.8431 12.1217 2.00024 10 2.00024C7.87827 2.00024 5.84344 2.8431 4.34315 4.34339C2.84285 5.84368 2 7.87851 2 10.0002C2 12.122 2.84285 14.1568 4.34315 15.6571C5.84344 17.1574 7.87827 18.0002 10 18.0002ZM11 10.0002H15V12.0002H9V5.00024H11V10.0002Z" fill="#222222"/>
</svg>
