<svg width="22" height="16" viewBox="0 0 22 16" fill="none" xmlns="http://www.w3.org/2000/svg">
<path d="M15 9.15527e-05C15.2652 9.15527e-05 15.5196 0.105449 15.7071 0.292985C15.8946 0.480521 16 0.734875 16 1.00009V5.20009L21.213 1.55009C21.288 1.49755 21.3759 1.46659 21.4672 1.46059C21.5586 1.4546 21.6498 1.47379 21.731 1.51609C21.8122 1.55838 21.8802 1.62215 21.9276 1.70044C21.9751 1.77874 22.0001 1.86855 22 1.96009V14.0401C22.0001 14.1316 21.9751 14.2214 21.9276 14.2997C21.8802 14.378 21.8122 14.4418 21.731 14.4841C21.6498 14.5264 21.5586 14.5456 21.4672 14.5396C21.3759 14.5336 21.288 14.5026 21.213 14.4501L16 10.8001V15.0001C16 15.2653 15.8946 15.5197 15.7071 15.7072C15.5196 15.8947 15.2652 16.0001 15 16.0001H1C0.734784 16.0001 0.48043 15.8947 0.292893 15.7072C0.105357 15.5197 0 15.2653 0 15.0001V1.00009C0 0.734875 0.105357 0.480521 0.292893 0.292985C0.48043 0.105449 0.734784 9.15527e-05 1 9.15527e-05H15ZM14 2.00009H2V14.0001H14V2.00009ZM6.4 4.82909C6.47611 4.82888 6.55069 4.85039 6.615 4.89109L10.97 7.66309C11.0266 7.69926 11.0731 7.74909 11.1054 7.80799C11.1376 7.86688 11.1545 7.93295 11.1545 8.00009C11.1545 8.06724 11.1376 8.1333 11.1054 8.1922C11.0731 8.25109 11.0266 8.30092 10.97 8.33709L6.615 11.1101C6.55434 11.1488 6.48438 11.1704 6.41248 11.1726C6.34059 11.1748 6.26941 11.1577 6.20646 11.1229C6.14351 11.0881 6.0911 11.0369 6.05477 10.9748C6.01844 10.9128 5.99951 10.842 6 10.7701V5.23009C6 5.00909 6.18 4.83009 6.4 4.83009V4.82909ZM20 4.84009L16 7.64009V8.35809L20 11.1581V4.84009Z" fill="#FC5252"/>
</svg>
